<?xml version="1.0" encoding="utf-8" standalone="no"?>
<!DOCTYPE svg PUBLIC "-//W3C//DTD SVG 1.1//EN"
  "http://www.w3.org/Graphics/SVG/1.1/DTD/svg11.dtd">
<!-- Created with matplotlib (http://matplotlib.org/) -->
<svg height="182pt" version="1.1" viewBox="0 0 374 182" width="374pt" xmlns="http://www.w3.org/2000/svg" xmlns:xlink="http://www.w3.org/1999/xlink">
 <defs>
  <style type="text/css">
*{stroke-linecap:butt;stroke-linejoin:round;}
  </style>
 </defs>
 <g id="figure_1">
  <g id="patch_1">
   <path d="M 0 182 
L 374 182 
L 374 0 
L 0 0 
z
" style="fill:#ffffff;"/>
  </g>
  <g id="axes_1">
   <g id="patch_2">
    <path d="M 36.8875 154.521875 
L 359.7 154.521875 
L 359.7 14.3 
L 36.8875 14.3 
z
" style="fill:#ffffff;"/>
   </g>
   <g id="matplotlib.axis_1">
    <g id="xtick_1">
     <g id="line2d_1">
      <defs>
       <path d="M 0 0 
L 0 3.5 
" id="m9df3c69259" style="stroke:#000000;stroke-width:0.8;"/>
      </defs>
      <g>
       <use style="stroke:#000000;stroke-width:0.8;" x="51.560795" xlink:href="#m9df3c69259" y="154.521875"/>
      </g>
     </g>
     <g id="text_1">
      <!-- 0 -->
      <defs>
       <path d="M 31.78125 66.40625 
Q 24.171875 66.40625 20.328125 58.90625 
Q 16.5 51.421875 16.5 36.375 
Q 16.5 21.390625 20.328125 13.890625 
Q 24.171875 6.390625 31.78125 6.390625 
Q 39.453125 6.390625 43.28125 13.890625 
Q 47.125 21.390625 47.125 36.375 
Q 47.125 51.421875 43.28125 58.90625 
Q 39.453125 66.40625 31.78125 66.40625 
z
M 31.78125 74.21875 
Q 44.046875 74.21875 50.515625 64.515625 
Q 56.984375 54.828125 56.984375 36.375 
Q 56.984375 17.96875 50.515625 8.265625 
Q 44.046875 -1.421875 31.78125 -1.421875 
Q 19.53125 -1.421875 13.0625 8.265625 
Q 6.59375 17.96875 6.59375 36.375 
Q 6.59375 54.828125 13.0625 64.515625 
Q 19.53125 74.21875 31.78125 74.21875 
z
" id="DejaVuSans-30"/>
      </defs>
      <g transform="translate(48.379545 169.120313)scale(0.1 -0.1)">
       <use xlink:href="#DejaVuSans-30"/>
      </g>
     </g>
    </g>
    <g id="xtick_2">
     <g id="line2d_2">
      <g>
       <use style="stroke:#000000;stroke-width:0.8;" x="110.253977" xlink:href="#m9df3c69259" y="154.521875"/>
      </g>
     </g>
     <g id="text_2">
      <!-- 20 -->
      <defs>
       <path d="M 19.1875 8.296875 
L 53.609375 8.296875 
L 53.609375 0 
L 7.328125 0 
L 7.328125 8.296875 
Q 12.9375 14.109375 22.625 23.890625 
Q 32.328125 33.6875 34.8125 36.53125 
Q 39.546875 41.84375 41.421875 45.53125 
Q 43.3125 49.21875 43.3125 52.78125 
Q 43.3125 58.59375 39.234375 62.25 
Q 35.15625 65.921875 28.609375 65.921875 
Q 23.96875 65.921875 18.8125 64.3125 
Q 13.671875 62.703125 7.8125 59.421875 
L 7.8125 69.390625 
Q 13.765625 71.78125 18.9375 73 
Q 24.125 74.21875 28.421875 74.21875 
Q 39.75 74.21875 46.484375 68.546875 
Q 53.21875 62.890625 53.21875 53.421875 
Q 53.21875 48.921875 51.53125 44.890625 
Q 49.859375 40.875 45.40625 35.40625 
Q 44.1875 33.984375 37.640625 27.21875 
Q 31.109375 20.453125 19.1875 8.296875 
z
" id="DejaVuSans-32"/>
      </defs>
      <g transform="translate(103.891477 169.120313)scale(0.1 -0.1)">
       <use xlink:href="#DejaVuSans-32"/>
       <use x="63.623047" xlink:href="#DejaVuSans-30"/>
      </g>
     </g>
    </g>
    <g id="xtick_3">
     <g id="line2d_3">
      <g>
       <use style="stroke:#000000;stroke-width:0.8;" x="168.947159" xlink:href="#m9df3c69259" y="154.521875"/>
      </g>
     </g>
     <g id="text_3">
      <!-- 40 -->
      <defs>
       <path d="M 37.796875 64.3125 
L 12.890625 25.390625 
L 37.796875 25.390625 
z
M 35.203125 72.90625 
L 47.609375 72.90625 
L 47.609375 25.390625 
L 58.015625 25.390625 
L 58.015625 17.1875 
L 47.609375 17.1875 
L 47.609375 0 
L 37.796875 0 
L 37.796875 17.1875 
L 4.890625 17.1875 
L 4.890625 26.703125 
z
" id="DejaVuSans-34"/>
      </defs>
      <g transform="translate(162.584659 169.120313)scale(0.1 -0.1)">
       <use xlink:href="#DejaVuSans-34"/>
       <use x="63.623047" xlink:href="#DejaVuSans-30"/>
      </g>
     </g>
    </g>
    <g id="xtick_4">
     <g id="line2d_4">
      <g>
       <use style="stroke:#000000;stroke-width:0.8;" x="227.640341" xlink:href="#m9df3c69259" y="154.521875"/>
      </g>
     </g>
     <g id="text_4">
      <!-- 60 -->
      <defs>
       <path d="M 33.015625 40.375 
Q 26.375 40.375 22.484375 35.828125 
Q 18.609375 31.296875 18.609375 23.390625 
Q 18.609375 15.53125 22.484375 10.953125 
Q 26.375 6.390625 33.015625 6.390625 
Q 39.65625 6.390625 43.53125 10.953125 
Q 47.40625 15.53125 47.40625 23.390625 
Q 47.40625 31.296875 43.53125 35.828125 
Q 39.65625 40.375 33.015625 40.375 
z
M 52.59375 71.296875 
L 52.59375 62.3125 
Q 48.875 64.0625 45.09375 64.984375 
Q 41.3125 65.921875 37.59375 65.921875 
Q 27.828125 65.921875 22.671875 59.328125 
Q 17.53125 52.734375 16.796875 39.40625 
Q 19.671875 43.65625 24.015625 45.921875 
Q 28.375 48.1875 33.59375 48.1875 
Q 44.578125 48.1875 50.953125 41.515625 
Q 57.328125 34.859375 57.328125 23.390625 
Q 57.328125 12.15625 50.6875 5.359375 
Q 44.046875 -1.421875 33.015625 -1.421875 
Q 20.359375 -1.421875 13.671875 8.265625 
Q 6.984375 17.96875 6.984375 36.375 
Q 6.984375 53.65625 15.1875 63.9375 
Q 23.390625 74.21875 37.203125 74.21875 
Q 40.921875 74.21875 44.703125 73.484375 
Q 48.484375 72.75 52.59375 71.296875 
z
" id="DejaVuSans-36"/>
      </defs>
      <g transform="translate(221.277841 169.120313)scale(0.1 -0.1)">
       <use xlink:href="#DejaVuSans-36"/>
       <use x="63.623047" xlink:href="#DejaVuSans-30"/>
      </g>
     </g>
    </g>
    <g id="xtick_5">
     <g id="line2d_5">
      <g>
       <use style="stroke:#000000;stroke-width:0.8;" x="286.333523" xlink:href="#m9df3c69259" y="154.521875"/>
      </g>
     </g>
     <g id="text_5">
      <!-- 80 -->
      <defs>
       <path d="M 31.78125 34.625 
Q 24.75 34.625 20.71875 30.859375 
Q 16.703125 27.09375 16.703125 20.515625 
Q 16.703125 13.921875 20.71875 10.15625 
Q 24.75 6.390625 31.78125 6.390625 
Q 38.8125 6.390625 42.859375 10.171875 
Q 46.921875 13.96875 46.921875 20.515625 
Q 46.921875 27.09375 42.890625 30.859375 
Q 38.875 34.625 31.78125 34.625 
z
M 21.921875 38.8125 
Q 15.578125 40.375 12.03125 44.71875 
Q 8.5 49.078125 8.5 55.328125 
Q 8.5 64.0625 14.71875 69.140625 
Q 20.953125 74.21875 31.78125 74.21875 
Q 42.671875 74.21875 48.875 69.140625 
Q 55.078125 64.0625 55.078125 55.328125 
Q 55.078125 49.078125 51.53125 44.71875 
Q 48 40.375 41.703125 38.8125 
Q 48.828125 37.15625 52.796875 32.3125 
Q 56.78125 27.484375 56.78125 20.515625 
Q 56.78125 9.90625 50.3125 4.234375 
Q 43.84375 -1.421875 31.78125 -1.421875 
Q 19.734375 -1.421875 13.25 4.234375 
Q 6.78125 9.90625 6.78125 20.515625 
Q 6.78125 27.484375 10.78125 32.3125 
Q 14.796875 37.15625 21.921875 38.8125 
z
M 18.3125 54.390625 
Q 18.3125 48.734375 21.84375 45.5625 
Q 25.390625 42.390625 31.78125 42.390625 
Q 38.140625 42.390625 41.71875 45.5625 
Q 45.3125 48.734375 45.3125 54.390625 
Q 45.3125 60.0625 41.71875 63.234375 
Q 38.140625 66.40625 31.78125 66.40625 
Q 25.390625 66.40625 21.84375 63.234375 
Q 18.3125 60.0625 18.3125 54.390625 
z
" id="DejaVuSans-38"/>
      </defs>
      <g transform="translate(279.971023 169.120313)scale(0.1 -0.1)">
       <use xlink:href="#DejaVuSans-38"/>
       <use x="63.623047" xlink:href="#DejaVuSans-30"/>
      </g>
     </g>
    </g>
    <g id="xtick_6">
     <g id="line2d_6">
      <g>
       <use style="stroke:#000000;stroke-width:0.8;" x="345.026705" xlink:href="#m9df3c69259" y="154.521875"/>
      </g>
     </g>
     <g id="text_6">
      <!-- 100 -->
      <defs>
       <path d="M 12.40625 8.296875 
L 28.515625 8.296875 
L 28.515625 63.921875 
L 10.984375 60.40625 
L 10.984375 69.390625 
L 28.421875 72.90625 
L 38.28125 72.90625 
L 38.28125 8.296875 
L 54.390625 8.296875 
L 54.390625 0 
L 12.40625 0 
z
" id="DejaVuSans-31"/>
      </defs>
      <g transform="translate(335.482955 169.120313)scale(0.1 -0.1)">
       <use xlink:href="#DejaVuSans-31"/>
       <use x="63.623047" xlink:href="#DejaVuSans-30"/>
       <use x="127.246094" xlink:href="#DejaVuSans-30"/>
      </g>
     </g>
    </g>
   </g>
   <g id="matplotlib.axis_2">
    <g id="ytick_1">
     <g id="line2d_7">
      <defs>
       <path d="M 0 0 
L -3.5 0 
" id="mafa1399852" style="stroke:#000000;stroke-width:0.8;"/>
      </defs>
      <g>
       <use style="stroke:#000000;stroke-width:0.8;" x="36.8875" xlink:href="#mafa1399852" y="148.148153"/>
      </g>
     </g>
     <g id="text_7">
      <!-- 0 -->
      <g transform="translate(23.525 151.947372)scale(0.1 -0.1)">
       <use xlink:href="#DejaVuSans-30"/>
      </g>
     </g>
    </g>
    <g id="ytick_2">
     <g id="line2d_8">
      <g>
       <use style="stroke:#000000;stroke-width:0.8;" x="36.8875" xlink:href="#mafa1399852" y="124.321157"/>
      </g>
     </g>
     <g id="text_8">
      <!-- 20 -->
      <g transform="translate(17.1625 128.120376)scale(0.1 -0.1)">
       <use xlink:href="#DejaVuSans-32"/>
       <use x="63.623047" xlink:href="#DejaVuSans-30"/>
      </g>
     </g>
    </g>
    <g id="ytick_3">
     <g id="line2d_9">
      <g>
       <use style="stroke:#000000;stroke-width:0.8;" x="36.8875" xlink:href="#mafa1399852" y="100.49416"/>
      </g>
     </g>
     <g id="text_9">
      <!-- 40 -->
      <g transform="translate(17.1625 104.293379)scale(0.1 -0.1)">
       <use xlink:href="#DejaVuSans-34"/>
       <use x="63.623047" xlink:href="#DejaVuSans-30"/>
      </g>
     </g>
    </g>
    <g id="ytick_4">
     <g id="line2d_10">
      <g>
       <use style="stroke:#000000;stroke-width:0.8;" x="36.8875" xlink:href="#mafa1399852" y="76.667164"/>
      </g>
     </g>
     <g id="text_10">
      <!-- 60 -->
      <g transform="translate(17.1625 80.466382)scale(0.1 -0.1)">
       <use xlink:href="#DejaVuSans-36"/>
       <use x="63.623047" xlink:href="#DejaVuSans-30"/>
      </g>
     </g>
    </g>
    <g id="ytick_5">
     <g id="line2d_11">
      <g>
       <use style="stroke:#000000;stroke-width:0.8;" x="36.8875" xlink:href="#mafa1399852" y="52.840167"/>
      </g>
     </g>
     <g id="text_11">
      <!-- 80 -->
      <g transform="translate(17.1625 56.639386)scale(0.1 -0.1)">
       <use xlink:href="#DejaVuSans-38"/>
       <use x="63.623047" xlink:href="#DejaVuSans-30"/>
      </g>
     </g>
    </g>
    <g id="ytick_6">
     <g id="line2d_12">
      <g>
       <use style="stroke:#000000;stroke-width:0.8;" x="36.8875" xlink:href="#mafa1399852" y="29.01317"/>
      </g>
     </g>
     <g id="text_12">
      <!-- 100 -->
      <g transform="translate(10.8 32.812389)scale(0.1 -0.1)">
       <use xlink:href="#DejaVuSans-31"/>
       <use x="63.623047" xlink:href="#DejaVuSans-30"/>
       <use x="127.246094" xlink:href="#DejaVuSans-30"/>
      </g>
     </g>
    </g>
   </g>
   <g id="line2d_13">
    <path clip-path="url(#p7efa3106a1)" d="M 51.560795 148.148153 
L 54.495455 144.574104 
L 57.430114 143.382754 
L 60.364773 142.191404 
L 63.299432 143.382754 
L 66.234091 142.191404 
L 69.16875 141.000054 
L 72.103409 139.808705 
L 75.038068 141.000054 
L 77.972727 142.191404 
L 80.907386 143.382754 
L 83.842045 144.574104 
L 86.776705 145.765454 
L 89.711364 146.956804 
L 92.646023 148.148153 
L 95.580682 148.148153 
L 98.515341 146.956804 
L 101.45 141.000054 
L 104.384659 142.191404 
L 107.319318 143.382754 
L 110.253977 142.191404 
L 113.188636 143.382754 
L 116.123295 142.191404 
L 119.057955 141.000054 
L 121.992614 139.808705 
L 124.927273 138.617355 
L 127.861932 137.426005 
L 130.796591 138.617355 
L 133.73125 137.426005 
L 136.665909 138.617355 
L 139.600568 137.426005 
L 142.535227 136.234655 
L 145.469886 135.043305 
L 148.404545 133.851955 
L 151.339205 135.043305 
L 154.273864 130.277906 
L 157.208523 129.086556 
L 160.143182 130.277906 
L 163.077841 129.086556 
L 166.0125 130.277906 
L 168.947159 129.086556 
L 171.881818 127.895206 
L 174.816477 126.703856 
L 177.751136 125.512507 
L 180.685795 124.321157 
L 183.620455 123.129807 
L 186.555114 121.938457 
L 189.489773 118.364408 
L 192.424432 117.173058 
L 195.359091 115.981708 
L 198.29375 114.790358 
L 201.228409 108.833609 
L 204.163068 107.642259 
L 207.097727 102.87686 
L 210.032386 101.68551 
L 212.967045 102.87686 
L 215.901705 101.68551 
L 218.836364 100.49416 
L 221.771023 101.68551 
L 224.705682 100.49416 
L 227.640341 99.30281 
L 230.575 96.920111 
L 233.509659 95.728761 
L 236.444318 94.537411 
L 239.378977 95.728761 
L 242.313636 96.920111 
L 245.248295 95.728761 
L 248.182955 94.537411 
L 251.117614 95.728761 
L 254.052273 96.920111 
L 256.986932 95.728761 
L 259.921591 94.537411 
L 262.85625 92.154711 
L 265.790909 93.346061 
L 268.725568 94.537411 
L 271.660227 93.346061 
L 274.594886 94.537411 
L 277.529545 93.346061 
L 280.464205 92.154711 
L 283.398864 90.963362 
L 286.333523 88.580662 
L 289.268182 89.772012 
L 292.202841 88.580662 
L 295.1375 87.389312 
L 298.072159 86.197962 
L 301.006818 85.006612 
L 303.941477 83.815263 
L 306.876136 85.006612 
L 309.810795 86.197962 
L 312.745455 85.006612 
L 315.680114 86.197962 
L 318.614773 85.006612 
L 321.549432 83.815263 
L 324.484091 85.006612 
L 327.41875 81.432563 
L 330.353409 80.241213 
L 333.288068 79.049863 
L 336.222727 77.858513 
L 339.157386 79.049863 
L 342.092045 77.858513 
L 345.026705 76.667164 
" style="fill:none;stroke:#1f77b4;stroke-linecap:square;stroke-width:1.5;"/>
   </g>
   <g id="line2d_14">
    <path clip-path="url(#p7efa3106a1)" d="M 51.560795 148.148153 
L 54.495455 143.382754 
L 57.430114 144.574104 
L 60.364773 145.765454 
L 63.299432 143.382754 
L 66.234091 144.574104 
L 69.16875 143.382754 
L 72.103409 141.000054 
L 75.038068 139.808705 
L 77.972727 138.617355 
L 80.907386 132.660606 
L 83.842045 133.851955 
L 86.776705 132.660606 
L 89.711364 131.469256 
L 92.646023 130.277906 
L 95.580682 129.086556 
L 98.515341 127.895206 
L 101.45 129.086556 
L 104.384659 123.129807 
L 107.319318 121.938457 
L 110.253977 120.747107 
L 113.188636 119.555757 
L 116.123295 120.747107 
L 119.057955 121.938457 
L 121.992614 123.129807 
L 124.927273 124.321157 
L 127.861932 125.512507 
L 130.796591 124.321157 
L 133.73125 123.129807 
L 136.665909 121.938457 
L 139.600568 114.790358 
L 142.535227 115.981708 
L 145.469886 117.173058 
L 148.404545 118.364408 
L 151.339205 117.173058 
L 154.273864 115.981708 
L 157.208523 114.790358 
L 160.143182 115.981708 
L 163.077841 114.790358 
L 166.0125 113.599008 
L 168.947159 114.790358 
L 171.881818 108.833609 
L 174.816477 107.642259 
L 177.751136 108.833609 
L 180.685795 110.024959 
L 183.620455 111.216309 
L 186.555114 112.407659 
L 189.489773 111.216309 
L 192.424432 112.407659 
L 195.359091 113.599008 
L 198.29375 111.216309 
L 201.228409 110.024959 
L 204.163068 106.450909 
L 207.097727 105.25956 
L 210.032386 102.87686 
L 212.967045 101.68551 
L 215.901705 100.49416 
L 218.836364 99.30281 
L 221.771023 100.49416 
L 224.705682 101.68551 
L 227.640341 100.49416 
L 230.575 99.30281 
L 233.509659 98.111461 
L 236.444318 96.920111 
L 239.378977 98.111461 
L 242.313636 96.920111 
L 245.248295 95.728761 
L 248.182955 94.537411 
L 251.117614 90.963362 
L 254.052273 89.772012 
L 256.986932 88.580662 
L 259.921591 89.772012 
L 262.85625 88.580662 
L 265.790909 89.772012 
L 268.725568 88.580662 
L 271.660227 87.389312 
L 274.594886 86.197962 
L 277.529545 81.432563 
L 280.464205 82.623913 
L 283.398864 83.815263 
L 286.333523 82.623913 
L 289.268182 81.432563 
L 292.202841 80.241213 
L 295.1375 81.432563 
L 298.072159 80.241213 
L 301.006818 81.432563 
L 303.941477 80.241213 
L 306.876136 77.858513 
L 309.810795 71.901764 
L 312.745455 73.093114 
L 315.680114 71.901764 
L 318.614773 70.710414 
L 321.549432 69.519065 
L 324.484091 68.327715 
L 327.41875 67.136365 
L 330.353409 65.945015 
L 333.288068 67.136365 
L 336.222727 65.945015 
L 339.157386 64.753665 
L 342.092045 63.562315 
L 345.026705 61.179616 
" style="fill:none;stroke:#ff7f0e;stroke-linecap:square;stroke-width:1.5;"/>
   </g>
   <g id="line2d_15">
    <path clip-path="url(#p7efa3106a1)" d="M 51.560795 148.148153 
L 54.495455 145.765454 
L 57.430114 146.956804 
L 60.364773 145.765454 
L 63.299432 144.574104 
L 66.234091 141.000054 
L 69.16875 142.191404 
L 72.103409 141.000054 
L 75.038068 142.191404 
L 77.972727 141.000054 
L 80.907386 139.808705 
L 83.842045 138.617355 
L 86.776705 139.808705 
L 89.711364 138.617355 
L 92.646023 139.808705 
L 95.580682 138.617355 
L 98.515341 137.426005 
L 101.45 135.043305 
L 104.384659 136.234655 
L 107.319318 137.426005 
L 110.253977 136.234655 
L 113.188636 135.043305 
L 116.123295 136.234655 
L 119.057955 133.851955 
L 121.992614 132.660606 
L 124.927273 131.469256 
L 127.861932 130.277906 
L 130.796591 129.086556 
L 133.73125 127.895206 
L 136.665909 126.703856 
L 139.600568 127.895206 
L 142.535227 126.703856 
L 145.469886 125.512507 
L 148.404545 119.555757 
L 151.339205 118.364408 
L 154.273864 119.555757 
L 157.208523 120.747107 
L 160.143182 121.938457 
L 163.077841 123.129807 
L 166.0125 121.938457 
L 168.947159 120.747107 
L 171.881818 119.555757 
L 174.816477 113.599008 
L 177.751136 112.407659 
L 180.685795 113.599008 
L 183.620455 112.407659 
L 186.555114 111.216309 
L 189.489773 110.024959 
L 192.424432 108.833609 
L 195.359091 107.642259 
L 198.29375 106.450909 
L 201.228409 107.642259 
L 204.163068 108.833609 
L 207.097727 107.642259 
L 210.032386 108.833609 
L 212.967045 101.68551 
L 215.901705 102.87686 
L 218.836364 101.68551 
L 221.771023 102.87686 
L 224.705682 101.68551 
L 227.640341 102.87686 
L 230.575 101.68551 
L 233.509659 96.920111 
L 236.444318 92.154711 
L 239.378977 89.772012 
L 242.313636 87.389312 
L 245.248295 88.580662 
L 248.182955 87.389312 
L 251.117614 85.006612 
L 254.052273 86.197962 
L 256.986932 79.049863 
L 259.921591 77.858513 
L 262.85625 75.475814 
L 265.790909 74.284464 
L 268.725568 75.475814 
L 271.660227 74.284464 
L 274.594886 73.093114 
L 277.529545 71.901764 
L 280.464205 73.093114 
L 283.398864 71.901764 
L 286.333523 70.710414 
L 289.268182 69.519065 
L 292.202841 67.136365 
L 295.1375 68.327715 
L 298.072159 69.519065 
L 301.006818 68.327715 
L 303.941477 61.179616 
L 306.876136 55.222867 
L 309.810795 56.414216 
L 312.745455 57.605566 
L 315.680114 52.840167 
L 318.614773 51.648817 
L 321.549432 50.457467 
L 324.484091 49.266118 
L 327.41875 46.883418 
L 330.353409 48.074768 
L 333.288068 46.883418 
L 336.222727 48.074768 
L 339.157386 46.883418 
L 342.092045 48.074768 
L 345.026705 49.266118 
" style="fill:none;stroke:#2ca02c;stroke-linecap:square;stroke-width:1.5;"/>
   </g>
   <g id="line2d_16">
    <path clip-path="url(#p7efa3106a1)" d="M 51.560795 148.148153 
L 54.495455 141.000054 
L 57.430114 142.191404 
L 60.364773 141.000054 
L 63.299432 139.808705 
L 66.234091 138.617355 
L 69.16875 137.426005 
L 72.103409 136.234655 
L 75.038068 135.043305 
L 77.972727 133.851955 
L 80.907386 132.660606 
L 83.842045 133.851955 
L 86.776705 132.660606 
L 89.711364 133.851955 
L 92.646023 135.043305 
L 95.580682 133.851955 
L 98.515341 135.043305 
L 101.45 133.851955 
L 104.384659 135.043305 
L 107.319318 133.851955 
L 110.253977 132.660606 
L 113.188636 127.895206 
L 116.123295 126.703856 
L 119.057955 127.895206 
L 121.992614 120.747107 
L 124.927273 121.938457 
L 127.861932 123.129807 
L 130.796591 121.938457 
L 133.73125 123.129807 
L 136.665909 124.321157 
L 139.600568 123.129807 
L 142.535227 124.321157 
L 145.469886 119.555757 
L 148.404545 120.747107 
L 151.339205 119.555757 
L 154.273864 120.747107 
L 157.208523 119.555757 
L 160.143182 120.747107 
L 163.077841 119.555757 
L 166.0125 117.173058 
L 168.947159 118.364408 
L 171.881818 119.555757 
L 174.816477 120.747107 
L 177.751136 119.555757 
L 180.685795 120.747107 
L 183.620455 114.790358 
L 186.555114 113.599008 
L 189.489773 112.407659 
L 192.424432 113.599008 
L 195.359091 114.790358 
L 198.29375 113.599008 
L 201.228409 114.790358 
L 204.163068 113.599008 
L 207.097727 114.790358 
L 210.032386 108.833609 
L 212.967045 107.642259 
L 215.901705 108.833609 
L 218.836364 110.024959 
L 221.771023 111.216309 
L 224.705682 112.407659 
L 227.640341 111.216309 
L 230.575 110.024959 
L 233.509659 105.25956 
L 236.444318 98.111461 
L 239.378977 96.920111 
L 242.313636 95.728761 
L 245.248295 94.537411 
L 248.182955 93.346061 
L 251.117614 94.537411 
L 254.052273 93.346061 
L 256.986932 90.963362 
L 259.921591 89.772012 
L 262.85625 88.580662 
L 265.790909 87.389312 
L 268.725568 88.580662 
L 271.660227 89.772012 
L 274.594886 88.580662 
L 277.529545 89.772012 
L 280.464205 88.580662 
L 283.398864 87.389312 
L 286.333523 86.197962 
L 289.268182 87.389312 
L 292.202841 86.197962 
L 295.1375 85.006612 
L 298.072159 83.815263 
L 301.006818 85.006612 
L 303.941477 86.197962 
L 306.876136 85.006612 
L 309.810795 83.815263 
L 312.745455 77.858513 
L 315.680114 76.667164 
L 318.614773 75.475814 
L 321.549432 69.519065 
L 324.484091 70.710414 
L 327.41875 69.519065 
L 330.353409 70.710414 
L 333.288068 69.519065 
L 336.222727 68.327715 
L 339.157386 67.136365 
L 342.092045 65.945015 
L 345.026705 67.136365 
" style="fill:none;stroke:#d62728;stroke-linecap:square;stroke-width:1.5;"/>
   </g>
   <g id="line2d_17">
    <path clip-path="url(#p7efa3106a1)" d="M 51.560795 148.148153 
L 54.495455 141.000054 
L 57.430114 142.191404 
L 60.364773 141.000054 
L 63.299432 142.191404 
L 66.234091 143.382754 
L 69.16875 142.191404 
L 72.103409 137.426005 
L 75.038068 136.234655 
L 77.972727 135.043305 
L 80.907386 133.851955 
L 83.842045 132.660606 
L 86.776705 133.851955 
L 89.711364 135.043305 
L 92.646023 136.234655 
L 95.580682 137.426005 
L 98.515341 138.617355 
L 101.45 137.426005 
L 104.384659 136.234655 
L 107.319318 135.043305 
L 110.253977 133.851955 
L 113.188636 132.660606 
L 116.123295 131.469256 
L 119.057955 132.660606 
L 121.992614 131.469256 
L 124.927273 130.277906 
L 127.861932 131.469256 
L 130.796591 130.277906 
L 133.73125 129.086556 
L 136.665909 125.512507 
L 139.600568 126.703856 
L 142.535227 125.512507 
L 145.469886 126.703856 
L 148.404545 125.512507 
L 151.339205 121.938457 
L 154.273864 120.747107 
L 157.208523 119.555757 
L 160.143182 118.364408 
L 163.077841 119.555757 
L 166.0125 120.747107 
L 168.947159 117.173058 
L 171.881818 115.981708 
L 174.816477 114.790358 
L 177.751136 113.599008 
L 180.685795 114.790358 
L 183.620455 115.981708 
L 186.555114 114.790358 
L 189.489773 111.216309 
L 192.424432 110.024959 
L 195.359091 104.06821 
L 198.29375 102.87686 
L 201.228409 104.06821 
L 204.163068 102.87686 
L 207.097727 104.06821 
L 210.032386 102.87686 
L 212.967045 104.06821 
L 215.901705 96.920111 
L 218.836364 98.111461 
L 221.771023 99.30281 
L 224.705682 98.111461 
L 227.640341 95.728761 
L 230.575 96.920111 
L 233.509659 98.111461 
L 236.444318 99.30281 
L 239.378977 98.111461 
L 242.313636 96.920111 
L 245.248295 95.728761 
L 248.182955 94.537411 
L 251.117614 89.772012 
L 254.052273 83.815263 
L 256.986932 82.623913 
L 259.921591 81.432563 
L 262.85625 80.241213 
L 265.790909 76.667164 
L 268.725568 75.475814 
L 271.660227 74.284464 
L 274.594886 73.093114 
L 277.529545 71.901764 
L 280.464205 70.710414 
L 283.398864 69.519065 
L 286.333523 70.710414 
L 289.268182 71.901764 
L 292.202841 70.710414 
L 295.1375 69.519065 
L 298.072159 70.710414 
L 301.006818 63.562315 
L 303.941477 64.753665 
L 306.876136 63.562315 
L 309.810795 62.370966 
L 312.745455 63.562315 
L 315.680114 64.753665 
L 318.614773 63.562315 
L 321.549432 64.753665 
L 324.484091 65.945015 
L 327.41875 58.796916 
L 330.353409 59.988266 
L 333.288068 61.179616 
L 336.222727 59.988266 
L 339.157386 58.796916 
L 342.092045 59.988266 
L 345.026705 61.179616 
" style="fill:none;stroke:#9467bd;stroke-linecap:square;stroke-width:1.5;"/>
   </g>
   <g id="line2d_18">
    <path clip-path="url(#p7efa3106a1)" d="M 51.560795 148.148153 
L 54.495455 148.148153 
L 57.430114 148.148153 
L 60.364773 146.956804 
L 63.299432 139.808705 
L 66.234091 138.617355 
L 69.16875 135.043305 
L 72.103409 133.851955 
L 75.038068 126.703856 
L 77.972727 125.512507 
L 80.907386 124.321157 
L 83.842045 117.173058 
L 86.776705 118.364408 
L 89.711364 111.216309 
L 92.646023 112.407659 
L 95.580682 111.216309 
L 98.515341 110.024959 
L 101.45 108.833609 
L 104.384659 110.024959 
L 107.319318 102.87686 
L 110.253977 101.68551 
L 113.188636 102.87686 
L 116.123295 101.68551 
L 119.057955 102.87686 
L 121.992614 101.68551 
L 124.927273 102.87686 
L 127.861932 101.68551 
L 130.796591 102.87686 
L 133.73125 101.68551 
L 136.665909 96.920111 
L 139.600568 95.728761 
L 142.535227 93.346061 
L 145.469886 94.537411 
L 148.404545 93.346061 
L 151.339205 94.537411 
L 154.273864 95.728761 
L 157.208523 94.537411 
L 160.143182 95.728761 
L 163.077841 94.537411 
L 166.0125 95.728761 
L 168.947159 90.963362 
L 171.881818 86.197962 
L 174.816477 87.389312 
L 177.751136 88.580662 
L 180.685795 89.772012 
L 183.620455 88.580662 
L 186.555114 87.389312 
L 189.489773 82.623913 
L 192.424432 81.432563 
L 195.359091 80.241213 
L 198.29375 75.475814 
L 201.228409 76.667164 
L 204.163068 77.858513 
L 207.097727 79.049863 
L 210.032386 77.858513 
L 212.967045 76.667164 
L 215.901705 74.284464 
L 218.836364 75.475814 
L 221.771023 76.667164 
L 224.705682 75.475814 
L 227.640341 74.284464 
L 230.575 71.901764 
L 233.509659 68.327715 
L 236.444318 62.370966 
L 239.378977 61.179616 
L 242.313636 62.370966 
L 245.248295 61.179616 
L 248.182955 59.988266 
L 251.117614 58.796916 
L 254.052273 57.605566 
L 256.986932 56.414216 
L 259.921591 57.605566 
L 262.85625 56.414216 
L 265.790909 55.222867 
L 268.725568 48.074768 
L 271.660227 49.266118 
L 274.594886 43.309368 
L 277.529545 44.500718 
L 280.464205 39.735319 
L 283.398864 40.926669 
L 286.333523 36.161269 
L 289.268182 37.352619 
L 292.202841 33.77857 
L 295.1375 32.58722 
L 298.072159 33.77857 
L 301.006818 32.58722 
L 303.941477 25.439121 
L 306.876136 26.630471 
L 309.810795 27.821821 
L 312.745455 29.01317 
L 315.680114 24.247771 
L 318.614773 25.439121 
L 321.549432 26.630471 
L 324.484091 25.439121 
L 327.41875 24.247771 
L 330.353409 25.439121 
L 333.288068 24.247771 
L 336.222727 23.056421 
L 339.157386 21.865071 
L 342.092045 20.673722 
L 345.026705 21.865071 
" style="fill:none;stroke:#8c564b;stroke-linecap:square;stroke-width:1.5;"/>
   </g>
   <g id="line2d_19">
    <path clip-path="url(#p7efa3106a1)" d="M 51.560795 148.148153 
L 54.495455 148.148153 
L 57.430114 148.148153 
L 60.364773 146.956804 
L 63.299432 148.148153 
L 66.234091 148.148153 
L 69.16875 143.382754 
L 72.103409 142.191404 
L 75.038068 139.808705 
L 77.972727 135.043305 
L 80.907386 127.895206 
L 83.842045 129.086556 
L 86.776705 130.277906 
L 89.711364 129.086556 
L 92.646023 127.895206 
L 95.580682 126.703856 
L 98.515341 127.895206 
L 101.45 126.703856 
L 104.384659 127.895206 
L 107.319318 126.703856 
L 110.253977 125.512507 
L 113.188636 126.703856 
L 116.123295 127.895206 
L 119.057955 126.703856 
L 121.992614 125.512507 
L 124.927273 124.321157 
L 127.861932 123.129807 
L 130.796591 121.938457 
L 133.73125 120.747107 
L 136.665909 119.555757 
L 139.600568 118.364408 
L 142.535227 117.173058 
L 145.469886 115.981708 
L 148.404545 108.833609 
L 151.339205 110.024959 
L 154.273864 106.450909 
L 157.208523 105.25956 
L 160.143182 106.450909 
L 163.077841 107.642259 
L 166.0125 106.450909 
L 168.947159 105.25956 
L 171.881818 104.06821 
L 174.816477 105.25956 
L 177.751136 106.450909 
L 180.685795 107.642259 
L 183.620455 108.833609 
L 186.555114 107.642259 
L 189.489773 106.450909 
L 192.424432 105.25956 
L 195.359091 104.06821 
L 198.29375 102.87686 
L 201.228409 101.68551 
L 204.163068 100.49416 
L 207.097727 101.68551 
L 210.032386 100.49416 
L 212.967045 99.30281 
L 215.901705 96.920111 
L 218.836364 98.111461 
L 221.771023 96.920111 
L 224.705682 95.728761 
L 227.640341 92.154711 
L 230.575 89.772012 
L 233.509659 88.580662 
L 236.444318 89.772012 
L 239.378977 90.963362 
L 242.313636 92.154711 
L 245.248295 93.346061 
L 248.182955 94.537411 
L 251.117614 93.346061 
L 254.052273 94.537411 
L 256.986932 93.346061 
L 259.921591 90.963362 
L 262.85625 89.772012 
L 265.790909 88.580662 
L 268.725568 89.772012 
L 271.660227 88.580662 
L 274.594886 89.772012 
L 277.529545 90.963362 
L 280.464205 89.772012 
L 283.398864 90.963362 
L 286.333523 92.154711 
L 289.268182 93.346061 
L 292.202841 92.154711 
L 295.1375 93.346061 
L 298.072159 94.537411 
L 301.006818 93.346061 
L 303.941477 92.154711 
L 306.876136 90.963362 
L 309.810795 88.580662 
L 312.745455 87.389312 
L 315.680114 86.197962 
L 318.614773 87.389312 
L 321.549432 88.580662 
L 324.484091 87.389312 
L 327.41875 80.241213 
L 330.353409 81.432563 
L 333.288068 80.241213 
L 336.222727 79.049863 
L 339.157386 73.093114 
L 342.092045 74.284464 
L 345.026705 73.093114 
" style="fill:none;stroke:#e377c2;stroke-linecap:square;stroke-width:1.5;"/>
   </g>
   <g id="line2d_20">
    <path clip-path="url(#p7efa3106a1)" d="M 51.560795 148.148153 
L 54.495455 148.148153 
L 57.430114 146.956804 
L 60.364773 145.765454 
L 63.299432 146.956804 
L 66.234091 145.765454 
L 69.16875 144.574104 
L 72.103409 137.426005 
L 75.038068 136.234655 
L 77.972727 135.043305 
L 80.907386 133.851955 
L 83.842045 135.043305 
L 86.776705 132.660606 
L 89.711364 131.469256 
L 92.646023 130.277906 
L 95.580682 129.086556 
L 98.515341 130.277906 
L 101.45 129.086556 
L 104.384659 127.895206 
L 107.319318 126.703856 
L 110.253977 125.512507 
L 113.188636 126.703856 
L 116.123295 125.512507 
L 119.057955 126.703856 
L 121.992614 125.512507 
L 124.927273 124.321157 
L 127.861932 125.512507 
L 130.796591 124.321157 
L 133.73125 119.555757 
L 136.665909 118.364408 
L 139.600568 114.790358 
L 142.535227 113.599008 
L 145.469886 108.833609 
L 148.404545 107.642259 
L 151.339205 108.833609 
L 154.273864 107.642259 
L 157.208523 106.450909 
L 160.143182 107.642259 
L 163.077841 108.833609 
L 166.0125 102.87686 
L 168.947159 101.68551 
L 171.881818 100.49416 
L 174.816477 101.68551 
L 177.751136 102.87686 
L 180.685795 101.68551 
L 183.620455 100.49416 
L 186.555114 99.30281 
L 189.489773 100.49416 
L 192.424432 95.728761 
L 195.359091 96.920111 
L 198.29375 95.728761 
L 201.228409 94.537411 
L 204.163068 93.346061 
L 207.097727 92.154711 
L 210.032386 90.963362 
L 212.967045 89.772012 
L 215.901705 88.580662 
L 218.836364 89.772012 
L 221.771023 90.963362 
L 224.705682 92.154711 
L 227.640341 90.963362 
L 230.575 89.772012 
L 233.509659 85.006612 
L 236.444318 83.815263 
L 239.378977 85.006612 
L 242.313636 83.815263 
L 245.248295 82.623913 
L 248.182955 83.815263 
L 251.117614 76.667164 
L 254.052273 75.475814 
L 256.986932 74.284464 
L 259.921591 73.093114 
L 262.85625 74.284464 
L 265.790909 73.093114 
L 268.725568 71.901764 
L 271.660227 68.327715 
L 274.594886 69.519065 
L 277.529545 68.327715 
L 280.464205 69.519065 
L 283.398864 70.710414 
L 286.333523 71.901764 
L 289.268182 70.710414 
L 292.202841 69.519065 
L 295.1375 67.136365 
L 298.072159 65.945015 
L 301.006818 64.753665 
L 303.941477 59.988266 
L 306.876136 58.796916 
L 309.810795 59.988266 
L 312.745455 61.179616 
L 315.680114 59.988266 
L 318.614773 58.796916 
L 321.549432 59.988266 
L 324.484091 61.179616 
L 327.41875 59.988266 
L 330.353409 58.796916 
L 333.288068 57.605566 
L 336.222727 58.796916 
L 339.157386 59.988266 
L 342.092045 58.796916 
L 345.026705 57.605566 
" style="fill:none;stroke:#7f7f7f;stroke-linecap:square;stroke-width:1.5;"/>
   </g>
   <g id="line2d_21">
    <path clip-path="url(#p7efa3106a1)" d="M 51.560795 148.148153 
L 54.495455 146.956804 
L 57.430114 148.148153 
L 60.364773 146.956804 
L 63.299432 145.765454 
L 66.234091 146.956804 
L 69.16875 148.148153 
L 72.103409 148.148153 
L 75.038068 146.956804 
L 77.972727 145.765454 
L 80.907386 144.574104 
L 83.842045 143.382754 
L 86.776705 142.191404 
L 89.711364 136.234655 
L 92.646023 131.469256 
L 95.580682 132.660606 
L 98.515341 131.469256 
L 101.45 132.660606 
L 104.384659 133.851955 
L 107.319318 135.043305 
L 110.253977 133.851955 
L 113.188636 135.043305 
L 116.123295 133.851955 
L 119.057955 132.660606 
L 121.992614 133.851955 
L 124.927273 129.086556 
L 127.861932 127.895206 
L 130.796591 129.086556 
L 133.73125 127.895206 
L 136.665909 129.086556 
L 139.600568 130.277906 
L 142.535227 129.086556 
L 145.469886 130.277906 
L 148.404545 125.512507 
L 151.339205 124.321157 
L 154.273864 123.129807 
L 157.208523 121.938457 
L 160.143182 120.747107 
L 163.077841 119.555757 
L 166.0125 120.747107 
L 168.947159 119.555757 
L 171.881818 118.364408 
L 174.816477 117.173058 
L 177.751136 115.981708 
L 180.685795 114.790358 
L 183.620455 115.981708 
L 186.555114 110.024959 
L 189.489773 108.833609 
L 192.424432 107.642259 
L 195.359091 108.833609 
L 198.29375 107.642259 
L 201.228409 108.833609 
L 204.163068 107.642259 
L 207.097727 106.450909 
L 210.032386 107.642259 
L 212.967045 106.450909 
L 215.901705 100.49416 
L 218.836364 99.30281 
L 221.771023 98.111461 
L 224.705682 99.30281 
L 227.640341 98.111461 
L 230.575 96.920111 
L 233.509659 95.728761 
L 236.444318 96.920111 
L 239.378977 95.728761 
L 242.313636 96.920111 
L 245.248295 95.728761 
L 248.182955 94.537411 
L 251.117614 95.728761 
L 254.052273 96.920111 
L 256.986932 98.111461 
L 259.921591 96.920111 
L 262.85625 95.728761 
L 265.790909 96.920111 
L 268.725568 98.111461 
L 271.660227 99.30281 
L 274.594886 98.111461 
L 277.529545 93.346061 
L 280.464205 92.154711 
L 283.398864 90.963362 
L 286.333523 89.772012 
L 289.268182 88.580662 
L 292.202841 87.389312 
L 295.1375 88.580662 
L 298.072159 87.389312 
L 301.006818 86.197962 
L 303.941477 87.389312 
L 306.876136 86.197962 
L 309.810795 80.241213 
L 312.745455 79.049863 
L 315.680114 80.241213 
L 318.614773 81.432563 
L 321.549432 80.241213 
L 324.484091 81.432563 
L 327.41875 82.623913 
L 330.353409 83.815263 
L 333.288068 79.049863 
L 336.222727 77.858513 
L 339.157386 76.667164 
L 342.092045 75.475814 
L 345.026705 76.667164 
" style="fill:none;stroke:#bcbd22;stroke-linecap:square;stroke-width:1.5;"/>
   </g>
   <g id="line2d_22">
    <path clip-path="url(#p7efa3106a1)" d="M 51.560795 148.148153 
L 54.495455 146.956804 
L 57.430114 145.765454 
L 60.364773 144.574104 
L 63.299432 143.382754 
L 66.234091 142.191404 
L 69.16875 143.382754 
L 72.103409 144.574104 
L 75.038068 141.000054 
L 77.972727 142.191404 
L 80.907386 143.382754 
L 83.842045 144.574104 
L 86.776705 145.765454 
L 89.711364 144.574104 
L 92.646023 137.426005 
L 95.580682 136.234655 
L 98.515341 137.426005 
L 101.45 136.234655 
L 104.384659 135.043305 
L 107.319318 136.234655 
L 110.253977 137.426005 
L 113.188636 136.234655 
L 116.123295 135.043305 
L 119.057955 133.851955 
L 121.992614 135.043305 
L 124.927273 130.277906 
L 127.861932 129.086556 
L 130.796591 130.277906 
L 133.73125 127.895206 
L 136.665909 126.703856 
L 139.600568 127.895206 
L 142.535227 126.703856 
L 145.469886 125.512507 
L 148.404545 124.321157 
L 151.339205 123.129807 
L 154.273864 121.938457 
L 157.208523 120.747107 
L 160.143182 121.938457 
L 163.077841 123.129807 
L 166.0125 121.938457 
L 168.947159 120.747107 
L 171.881818 121.938457 
L 174.816477 120.747107 
L 177.751136 119.555757 
L 180.685795 120.747107 
L 183.620455 121.938457 
L 186.555114 123.129807 
L 189.489773 118.364408 
L 192.424432 117.173058 
L 195.359091 115.981708 
L 198.29375 114.790358 
L 201.228409 113.599008 
L 204.163068 112.407659 
L 207.097727 111.216309 
L 210.032386 110.024959 
L 212.967045 108.833609 
L 215.901705 107.642259 
L 218.836364 108.833609 
L 221.771023 107.642259 
L 224.705682 106.450909 
L 227.640341 105.25956 
L 230.575 104.06821 
L 233.509659 102.87686 
L 236.444318 104.06821 
L 239.378977 105.25956 
L 242.313636 98.111461 
L 245.248295 96.920111 
L 248.182955 95.728761 
L 251.117614 96.920111 
L 254.052273 98.111461 
L 256.986932 99.30281 
L 259.921591 94.537411 
L 262.85625 93.346061 
L 265.790909 88.580662 
L 268.725568 89.772012 
L 271.660227 82.623913 
L 274.594886 81.432563 
L 277.529545 80.241213 
L 280.464205 75.475814 
L 283.398864 74.284464 
L 286.333523 75.475814 
L 289.268182 76.667164 
L 292.202841 75.475814 
L 295.1375 74.284464 
L 298.072159 73.093114 
L 301.006818 71.901764 
L 303.941477 73.093114 
L 306.876136 65.945015 
L 309.810795 64.753665 
L 312.745455 65.945015 
L 315.680114 61.179616 
L 318.614773 59.988266 
L 321.549432 61.179616 
L 324.484091 59.988266 
L 327.41875 61.179616 
L 330.353409 54.031517 
L 333.288068 46.883418 
L 336.222727 45.692068 
L 339.157386 46.883418 
L 342.092045 45.692068 
L 345.026705 44.500718 
" style="fill:none;stroke:#17becf;stroke-linecap:square;stroke-width:1.5;"/>
   </g>
   <g id="patch_3">
    <path d="M 36.8875 154.521875 
L 36.8875 14.3 
" style="fill:none;stroke:#000000;stroke-linecap:square;stroke-linejoin:miter;stroke-width:0.8;"/>
   </g>
   <g id="patch_4">
    <path d="M 359.7 154.521875 
L 359.7 14.3 
" style="fill:none;stroke:#000000;stroke-linecap:square;stroke-linejoin:miter;stroke-width:0.8;"/>
   </g>
   <g id="patch_5">
    <path d="M 36.8875 154.521875 
L 359.7 154.521875 
" style="fill:none;stroke:#000000;stroke-linecap:square;stroke-linejoin:miter;stroke-width:0.8;"/>
   </g>
   <g id="patch_6">
    <path d="M 36.8875 14.3 
L 359.7 14.3 
" style="fill:none;stroke:#000000;stroke-linecap:square;stroke-linejoin:miter;stroke-width:0.8;"/>
   </g>
  </g>
 </g>
 <defs>
  <clipPath id="p7efa3106a1">
   <rect height="140.221875" width="322.8125" x="36.8875" y="14.3"/>
  </clipPath>
 </defs>
</svg>
